# xmcd
#
# Track frame offsets: 
#        150
#        20371
#        40110
#        57699
#        74247
#        92058
#        107809
#        125285
#        141525
#        161645
#        180834
#        194942
#        211669
#        227328
#        239389
#
# Disc length: 3347 seconds
#
# Revision: 0
# Processed by: cddbd v1.5.2PL0 Copyright (c) Steve Scherf et al.
# Submitted via: ExactAudioCopy v1.0b3
#
DISCID=da0d110f
DTITLE=Jakub Smolík - Dopisy Lásky - Vzpomínka na Blaník
DYEAR=2003
DGENRE=Country
TTITLE0=Když andělé pláčou
TTITLE1=Nejsi má
TTITLE2=Pán bůh řekl vraťte se
TTITLE3=Nezavolám
TTITLE4=Má Lady
TTITLE5=Holka s bílou halenou
TTITLE6=Dopisy lásky
TTITLE7=Co na tom
TTITLE8=Ameriko
TTITLE9=Zpověď
TTITLE10=Pošťák
TTITLE11=Já už nebudu kovboj
TTITLE12=Vzpomínka na Blaník
TTITLE13=Když se láska vrací k nám
TTITLE14=V uličkách mých
EXTD=
EXTT0=
EXTT1=
EXTT2=
EXTT3=
EXTT4=
EXTT5=
EXTT6=
EXTT7=
EXTT8=
EXTT9=
EXTT10=
EXTT11=
EXTT12=
EXTT13=
EXTT14=
PLAYORDER=
